PathFileType	4	(X/Y/Z)	RBDS03\RBDS03runT35.trc
DataRate	CameraRate	NumFrames	NumMarkers	Units	OrigDataRate	OrigDataStartFrame	OrigNumFrames
150.000000	150.000000	6	33	mm	150.000000	3375	4500
Frame#	Time	L.ASIS			L.Heel.Bottom			L.Heel.Lateral			L.Heel.Top			L.Iliac.Crest			L.MT1			L.MT5			L.PSIS			L.Shank.Bottom.Lateral			L.Shank.Bottom.Medial			L.Shank.Top.Lateral			L.Shank.Top.Medial			L.Thigh.Bottom.Lateral			L.Thigh.Bottom.Medial			L.Thigh.Top.Lateral			L.Thigh.Top.Medial			R.ASIS			R.ASY			R.Heel.Bottom			R.Heel.Lateral			R.Heel.Top			R.Iliac.Crest			R.MT1			R.MT5			R.PSIS			R.Shank.Bottom.Lateral			R.Shank.Bottom.Medial			R.Shank.Top.Lateral			R.Shank.Top.Medial			R.Thigh.Bottom.Lateral			R.Thigh.Bottom.Medial			R.Thigh.Top.Lateral			R.Thigh.Top.Medial			
		X1	Y1	Z1	X2	Y2	Z2	X3	Y3	Z3	X4	Y4	Z4	X5	Y5	Z5	X6	Y6	Z6	X7	Y7	Z7	X8	Y8	Z8	X9	Y9	Z9	X10	Y10	Z10	X11	Y11	Z11	X12	Y12	Z12	X13	Y13	Z13	X14	Y14	Z14	X15	Y15	Z15	X16	Y16	Z16	X17	Y17	Z17	X18	Y18	Z18	X19	Y19	Z19	X20	Y20	Z20	X21	Y21	Z21	X22	Y22	Z22	X23	Y23	Z23	X24	Y24	Z24	X25	Y25	Z25	X26	Y26	Z26	X27	Y27	Z27	X28	Y28	Z28	X29	Y29	Z29	X30	Y30	Z30	X31	Y31	Z31	X32	Y32	Z32	X33	Y33	Z33	

3376	22.5	2319.553876718086	1042.820048311945	969.619850779966	2051.885117271281	352.7255338904931	1040.27625820806	2076.884732854257	331.9792536443511	991.0290654206431	2100.133513779874	367.8567159883211	1038.07588585509	2246.19728130508	1113.571078409958	920.9175486664612	2184.049090201466	167.0303703936123	1064.338815975777	2149.687625922816	193.2293583886893	961.8046522601255	2148.980272671274	1075.961458744991	1025.217187089498	2199.920992535851	367.3547929743827	970.3880224938428	2173.266317969775	401.9920882660979	1003.464252725494	2251.751555229909	425.3768126540331	950.6356041257064	2225.684822246795	460.3098645656364	982.236325908969	2447.017353738467	671.8001077470086	916.7791463770609	2389.131240025018	643.984925044228	952.7253906869865	2388.26510672253	761.9078784015516	892.4954477306692	2331.155396325271	733.6567562986992	921.9308208762901	2314.759689159935	1032.565661056164	1181.709781078275	91777122854.07217	-2405388194.953546	-7997113182.279543	1781.430333814744	125.1389894639982	1095.733994020863	1820.557282869327	123.6040820779559	1144.191407943634	1811.47279343029	163.1607117175233	1100.306115635592	2264.961225415881	1104.366945848354	1220.65406498944	1969.245552543913	47.70194103071208	1055.609820487124	1942.111549136265	44.99211844359205	1170.154727340266	2150.120335037182	1073.637746403997	1108.073190568535	1902.106045884578	213.9893300704138	1157.957200153987	1873.314981476745	238.039746405798	1122.477527960514	1936.312771510091	289.0305152179285	1177.774728267647	1905.144312589242	310.0488701398247	1139.510573245054	2142.938975614183	625.6759633517191	1208.392033086534	2078.620751388807	638.65527096193	1176.756544807918	2153.257843932132	734.4946480461421	1227.223840005729	2093.792098575184	745.9886945089345	1194.950403172915	
3377	22.50666666666667	2321.704195504951	1049.659667132986	968.5038131088996	2067.7050082231	329.851264133571	1044.142990634916	2093.43931531047	311.3323653404851	994.4861214627482	2114.455459166727	349.2886705391876	1040.943818421388	2247.469988260556	1121.329266333216	920.9381388110534	2216.141688504601	156.2753784247081	1065.580117619847	2177.534838336631	179.3140498554553	963.7158542442756	2151.789182131341	1082.338493459661	1025.335537644223	2214.468251052496	356.9766921462785	972.4270567448468	2186.221284439817	389.5681849310133	1006.199956361112	2262.353830287521	418.2356330487189	952.6006332605765	2234.756538608158	451.1809603218293	984.9549060324026	2448.755394500547	677.9711969449403	917.3479552705112	2390.477704754341	649.9547314012124	952.4173547937851	2390.221269325868	768.1899154797692	892.8841701946088	2332.866964306297	739.9088761380112	921.720691137034	2318.814324450677	1036.916732171262	1180.180569280857	91870016611.68935	-2407820368.397496	-8005205551.003944	1768.407046909031	140.7220596629766	1096.90875001419	1807.139816725178	135.7780260517553	1145.479966955396	1800.942503051502	176.4644636862456	1102.109726865418	2271.372255900671	1110.817283001437	1219.293462224885	1950.086546019694	49.91150626465208	1056.047695868365	1922.345605363239	47.57845182847275	1170.887998056381	2153.645380901738	1079.611759226195	1108.2137182878	1888.6799851801	223.5115678656055	1160.135539823343	1860.62336732597	246.5914583464138	1123.525529353546	1921.719780610603	299.2692867904551	1179.337994967276	1891.233565646582	319.2196780931669	1139.973859934154	2131.359543389615	635.7277032560339	1208.84115006533	2067.895879916521	651.1782953779197	1176.615574800682	2146.005299285356	744.1295329450337	1227.139601276537	2087.541274133811	757.8731827076007	1194.00375322129	
3378	22.51333333333334	2323.767504365739	1056.240198005539	967.2729289049456	2084.918422743454	306.7958776832178	1047.557440427297	2111.290000799375	290.4745266535699	997.5642825046491	2129.839510079931	330.3452653776059	1043.486100828864	2248.725142691414	1129.022903756211	920.9796988548355	2248.389653278561	146.5633492818066	1066.669445174377	2206.023283667585	165.9995613175697	965.4382539472157	2154.624433019911	1088.552167860867	1025.49632971619	2229.412512432548	346.310289226323	974.2269541635204	2199.733093244201	376.7534931436208	1008.73912798604	2273.126792045977	410.58658432065	954.3835089050722	2244.183706129614	441.4400717507315	987.5655738038196	2449.805573298516	683.2143665867455	917.9674706524327	2391.006472110339	655.0207144190529	951.9626271855933	2391.707923582605	773.7263404813425	893.4881497398453	2334.014425568321	745.4726094039682	921.5796674542125	2322.926511982745	1041.228160856331	1178.50094554554	91962973030.82498	-2410254180.785468	-8013303377.05761	1756.51195984159	157.1267972820248	1098.036018746157	1794.604135689548	148.8862922419214	1146.735208279188	1791.429551032509	190.4597958885513	1103.840235332823	2278.043212870346	1117.044436372825	1217.901415861855	1931.725010963871	53.17637995308175	1056.84714631056	1903.204282321315	51.24800634670118	1171.730270411763	2157.175017014396	1085.551879406293	1108.36614697389	1876.146111858001	233.5076085537462	1162.270918735792	1848.92932623396	255.6336490198969	1124.510296001212	1908.166365184905	309.9335979599336	1180.826989057929	1878.444305692821	328.8308566474137	1140.358525598599	2120.70348529074	646.0138371824268	1209.399013207354	2058.189643455708	663.7310657689883	1176.467149171245	2139.411175173255	753.9208496007708	1227.114533512312	2082.025212327042	769.7002576840514	1193.04800368735	
3379	22.52	2325.707454285986	1062.433937407241	965.9635409842336	2103.510657954824	283.7398545372192	1050.454603628111	2130.459201447693	269.593200891674	1000.199208593276	2146.292654519654	311.1567498690334	1045.658010069354	2249.949116654091	1136.464445827091	921.0274715600208	2280.610600230031	137.9195327195613	1067.592126257321	2235.090360384156	153.4128404517548	966.9337995148057	2157.427457522298	1094.509144090065	1025.688945143047	2244.741875689518	335.3943970413698	975.7639271112724	2213.791944866457	363.6230842399784	1011.030946897261	2284.082224090195	402.4403695888055	955.9403211633326	2253.975291319548	431.1326135683357	989.9934622129579	2450.107139112931	687.4328566447012	918.6500385547008	2390.687428398958	659.1089178213828	951.4468110957843	2392.645800588806	778.4030359250912	894.3155407226621	2334.539916200207	750.2455512687886	921.5714691794967	2326.982673111925	1045.472757824365	1176.742567469839	92055992132.60602	-2412689632.669482	-8021406662.280075	1745.439132045183	174.1590453812251	1099.002409797763	1782.63321632365	162.8436121620562	1147.870322760934	1782.556366334563	205.0180740695615	1105.397433037926	2284.864147404282	1122.989706846823	1216.488725266604	1913.99168692624	57.61890580672286	1058.044535178381	1884.485692553293	56.1886240636133	1172.685432929289	2160.640607779394	1091.38636909514	1108.523872460484	1864.261032878678	243.961239899778	1164.277597913208	1837.985656544283	265.2101952764604	1125.389885697872	1895.543598298133	320.941744039575	1182.178290214882	1866.662387848209	338.8708546557966	1140.646812656303	2111.149132345101	656.2547145047455	1210.046771801749	2049.6391198604	675.9773677886049	1176.315004023587	2133.56188354434	763.6273553797573	1227.135889785091	2077.277148660487	781.1819922116639	1192.109938552989	
3380	22.52666666666667	2327.496568229595	1068.126720892831	964.6186560661607	2123.43924556431	260.868147343304	1052.794819103711	2150.927108298071	248.8854475966606	1002.345601823918	2163.795063384608	291.8712787185474	1047.427300473564	2251.118569778475	1143.459036901378	921.0655232560556	2312.638106056185	130.3783117648061	1068.327997597097	2264.64993438681	141.6914996904924	968.16539554299	2160.144435701905	1100.122956079125	1025.899272443014	2260.421675511505	324.2946239436587	977.0225173050808	2228.362332310133	350.2708424308316	1013.038072123596	2295.209609302934	393.8360309908738	957.2396388059373	2264.110663951169	420.324412254438	992.1757185026433	2449.586909500947	690.5463065624855	919.4075313345666	2389.489960770398	662.1787202507011	950.9856156865561	2392.944103613399	782.1157049995211	895.3529274231123	2334.380662136277	754.1476719882046	921.761827190971	2330.877240435834	1049.631555021781	1174.982590444361	92149073938.15942	-2415126724.601557	-8029515408.510874	1734.851768726983	191.6402940981263	1099.679294726507	1770.891017365399	177.5666480828922	1148.78534650882	1773.932327540014	220.023344529535	1106.668411647972	2291.71339027793	1128.613960209478	1215.059621358027	1896.658673082319	63.30846598185922	1059.650752477003	1865.944296389986	62.55854128824618	1173.755201149634	2163.982545696885	1097.045679116137	1108.68001680184	1852.766347748892	254.8696584927585	1166.070754598126	1827.529031281833	275.3726929018138	1126.118273116781	1883.712514650083	332.2271044971997	1183.336568653239	1855.746602018999	349.3383592991777	1140.820491811606	2102.867845660037	666.166961557134	1210.763617584656	2042.36871235117	687.5901752982888	1176.171040312924	2128.548541705538	773.0024967017114	1227.196235946683	2073.331783007831	792.0400431578604	1191.22613321164	
3381	22.53333333333333	2329.118998918265	1073.225331451882	963.2850205083927	2144.633785838455	238.3735376706757	1054.565711800523	2172.627182038275	228.5576489024415	1003.979731420384	2182.298796312062	272.6579253200867	1048.776121128891	2252.207166344747	1149.821747544723	921.0775456063105	2344.320411313116	123.9897041728895	1068.849605697395	2294.584249232356	130.9816731247029	969.0973802832752	2162.729997758472	1105.317504775369	1026.110550048927	2276.39531603945	313.10752994632	977.9952306511984	2243.384092074871	336.8112072410304	1014.736211153839	2306.476670848278	384.8456815137712	958.264238558083	2274.540816008159	409.1041933123145	994.0647877937286	2448.167519313455	692.4976658557325	920.2510126396362	2387.387463225548	664.2248050178329	950.7131918721399	2392.508523874896	784.7777097069863	896.5655369795297	2333.475721693546	757.1262587528788	922.2115594433006	2334.521618553746	1053.690196766032	1173.296809614448	92242218468.61218	-2417565457.133715	-8037629617.589541	1724.423690799679	209.4235574097237	1099.93958394851	1759.065181157883	192.9812145493309	1149.3789638465	1765.199904095977	235.3808572400983	1107.540393563524	2298.453523400005	1133.898031918333	1213.613590229424	1879.465755032236	70.25865869367836	1061.647706997805	1847.325132155254	70.47374652589234	1174.937319876679	2167.152909712505	1102.463748982183	1108.827722937402	1841.420279838655	266.2375777833435	1167.57438058087	1817.312866333916	286.1688801010694	1126.649203292379	1872.523238383995	343.7370751054752	1184.259230715889	1845.548169074752	360.2343254762447	1140.862153995189	2096.008216073925	675.4788057411572	1211.528469749755	2036.477149319615	698.2719273576381	1176.056339643991	2124.459225192778	781.8071787991365	1227.294741743644	2070.222015059456	802.021768582836	1190.441866673807	
